<mxfile host="Electron" agent="Mozilla/5.0 (X11; Linux x86_64) AppleWebKit/537.36 (KHTML, like Gecko) draw.io/25.0.1 Chrome/128.0.6613.186 Electron/32.2.6 Safari/537.36" version="25.0.1">
  <diagram name="Page-1" id="Tp7XN0TuTi8dJ0PnFZM0">
    <mxGraphModel dx="1964" dy="1027" grid="1" gridSize="10" guides="1" tooltips="1" connect="1" arrows="1" fold="1" page="1" pageScale="1" pageWidth="850" pageHeight="1100" math="0" shadow="0">
      <root>
        <mxCell id="0" />
        <mxCell id="1" parent="0" />
        <mxCell id="KO9Rwdfi3OCxtlssUr2g-1" value="" style="endArrow=none;html=1;rounded=0;dashed=1;dashPattern=8 8;" edge="1" parent="1">
          <mxGeometry width="50" height="50" relative="1" as="geometry">
            <mxPoint x="455" y="770" as="sourcePoint" />
            <mxPoint x="455" y="30" as="targetPoint" />
          </mxGeometry>
        </mxCell>
        <mxCell id="KO9Rwdfi3OCxtlssUr2g-2" value="" style="shape=image;verticalLabelPosition=bottom;labelBackgroundColor=default;verticalAlign=top;aspect=fixed;imageAspect=0;image=data:image/png,iVBORw0KGgoAAAANSUhEUgAAAgAAAAIACAMAAADDpiTIAAAAA3NCSVQICAjb4U/gAAAACXBIWXMAAG9tAABvbQGwKa/bAAAAGXRFWHRTb2Z0d2FyZQB3d3cuaW5rc2NhcGUub3Jnm+48GgAAAwBQTFRF////AAAAAAAAAAAAAAAAAAAAAAAAAAAAAAAAAAAAAAAAAAAAAAAAAAAAAAAAAAAAAAAAAAAAAAAAAAAAAAAAAAAAAAAAAAAAAAAAAAAAAAAAAAAAAAAAAAAAAAAAAAAAAAAAAAAAAAAAAAAAAAAAAAAAAAAAAAAAAAAAAAAAAAAAAAAAAAAAAAAAAAAAAAAAAAAAAAAAAAAAAAAAAAAAAAAAAAAAAAAAAAAAAAAAAAAAAAAAAAAAAAAAAAAAAAAAAAAAAAAAAAAAAAAAAAAAAAAAAAAAAAAAAAAAAAAAAAAAAAAAAAAAAAAAAAAAAAAAAAAAAAAAAAAAAAAAAAAAAAAAAAAAAAAAAAAAAAAAAAAAAAAAAAAAAAAAAAAAAAAAAAAAAAAAAAAAAAAAAAAAAAAAAAAAAAAAAAAAAAAAAAAAAAAAAAAAAAAAAAAAAAAAAAAAAAAAAAAAAAAAAAAAAAAAAAAAAAAAAAAAAAAAAAAAAAAAAAAAAAAAAAAAAAAAAAAAAAAAAAAAAAAAAAAAAAAAAAAAAAAAAAAAAAAAAAAAAAAAAAAAAAAAAAAAAAAAAAAAAAAAAAAAAAAAAAAAAAAAAAAAAAAAAAAAAAAAAAAAAAAAAAAAAAAAAAAAAAAAAAAAAAAAAAAAAAAAAAAAAAAAAAAAAAAAAAAAAAAAAAAAAAAAAAAAAAAAAAAAAAAAAAAAAAAAAAAAAAAAAAAAAAAAAAAAAAAAAAAAAAAAAAAAAAAAAAAAAAAAAAAAAAAAAAAAAAAAAAAAAAAAAAAAAAAAAAAAAAAAAAAAAAAAAAAAAAAAAAAAAAAAAAAAAAAAAAAAAAAAAAAAAAAAAAAAAAAAAAAAAAAAAAAAAAAAAAAAAAAAAAAAAAAAAAAAAAAAAAAAAAAAAAAAAAAAAAAAAAAAAAAAAAAAAAAAAAAAAAAAAAAAAAAAAAAAAAAAAAAAAAAAAAAAAAAAAAAAAAAAAAAAAAAAAAAAAAAAAAAAAAAAAAAAAAAAAAAAAAAAAAAACyO34QAAAP90Uk5TAAECAwQFBgcICQoLDA0ODxAREhMUFRYXGBkaGxwdHh8gISIjJCUmJygpKissLS4vMDEyMzQ1Njc4OTo7PD0+P0BBQkNERUZHSElKS0xNTk9QUVJTVFVWV1hZWltcXV5fYGFiY2RlZmdoaWprbG1ub3BxcnN0dXZ3eHl6e3x9fn+AgYKDhIWGh4iJiouMjY6PkJGSk5SVlpeYmZqbnJ2en6ChoqOkpaanqKmqq6ytrq+wsbKztLW2t7i5uru8vb6/wMHCw8TFxsfIycrLzM3Oz9DR0tPU1dbX2Nna29zd3t/g4eLj5OXm5+jp6uvs7e7v8PHy8/T19vf4+fr7/P3+6wjZNQAAExFJREFUeNrt3Xd4FFUXx/EkLC0QAxFURAERRaJiA0VQX6xgAxvYgi2oGGxgAxs2sIEt2MAGKgZbsAUbaAQLNrBg76Cg2AsKCvHJy8MLvOckObN758699/y+f6q7m7lnTHZnZz6TlYUQQgghhBBCCCGEEEIIIYQQQgghhBBCCCGEEEIIIYQQQgghhBBCkgoGKa9A+Q5QWqW8Ut3z7/S39h3g706qd4CKKvVVaJ5/L8y/qqqX3vnXm4vxV1XNrad2ByjB9Ksr0Tr//EUYfnWL8pXuAKMx+xWN1jn/Dksw+hUt6aByByjH5FdWrnH+PTH3VfXUN/+c2Rj7qmbnqNsBijH11SvWNv+mCzD01VvQVNkOMBIzX7ORuubf9k+yApVTFFVJNv/Ptqp2gDJ6RDylaftT9FuQMk3b353+Cuyt61dgb7oC3fVsffYssvVTtb0LnkqWYFa2mo0voufFFGrbAQrpuVBFWrY9dx7Z9rH6joSNJYswL1fJpo8gm/7T2vp2gLV/IsswQseWt/6DbPnQLIUNJcvwR2sVGz6BbPhH9TXuAPU/JgsxQcN2d1lOtrtvlsr6koVY3kXBZs8gmz0tS2nTyVLMCH+j+5GNXraV1h1gq2VkMfqFvs0NPyfbPD5LbePJYnzeMPBNHkY2+dd19e4A6/5KlmMYtlhTw7X9/zBO3++8WmtE/yKOC3l7O9N3Pf2zVNefvifuHPDmTiObOzNLeTM1fSruQ498dNW+A3Slx8X6hLqt9T8i2zoxS3136zkyPkTrtx+1tgH9bmxImFuq9/vP2rtIy7fjpXrPgKi13PlkYYKUoxgPagCmX90AeoZciHIU9aBezcbwq8t+TYMcxXhQPTD7FfVQIEcxHtRkTH5l94cvR5Vovxaq1tr9Fboc1Yx6UKMw91VdTuWoZkFtIPWgFuZh7KvKWxi2HMV4UMWY+uoNDFuOKoeJUkc5c0KWo3alH3N2xczXbLeA14jxoMox8f/vkXB/SxZDRhS0ydJQ3ycxHtQYzJt2Tahy1KjQP+OaOlbyfZjHShgPqgTT5jo5zKOlZbhDgrDUeyHKUfCg5O0doBzFeFAVmHRNPRmeHFWk42wXQxX+E5ocBQ8qWjeGdt4kPKhotQjszOnWas55N9UZYV07AQ8qag2CkqO6KLruzVQHhCRHwYNKo+fCkaP66br23VBbByNHNVSmX5jqtlAUFXhQ6bXeb2E4SvCg0u3cMP7PgQeVbo2+COFvp0YF01SHhqCpTtPo4JrqRf8/P/fRKWEbanvvj6AxHtQEzFWe93IUPKjM8l2OggeVaRf7/T264jtiGarJfJ/PpOmk+J54pjrK53PpKjTfFdNQPstRvVTfF9dUO3krR9VTfmdsU3krR8GDMtNGnspRjAc1EtNMpyv8vKp2TKhXOVsv71sfr6uHB2Wu432UNeBBmSvnLf9sHcaD6olJptvu3slR8KDM5p0cBQ/KbJt6JkflLQhbPLXftfQzlcvGLuNB5WOImdTcKzkKHpT5vJKjqAf1LjyoDEu97883K90V3PnEfvt4891q9qvwoOLoKV/utgUPKp4290SOYjyoUkzPRDf5cYYl9aB+hAdlpBY/+3CONeNBnY7ZmckLOYp6UB/CgzJUg0/cv84KHlScHej+lZbUg3oWczOX83IUPKh428ZxbQEeVNzd7ra3wnhQ62BoJnNbjmI8qHMwM7M5LUeNJz/cZ/CgDMfIUeNd+dngQdnoMHflKHhQVnrJVTmqLzwoK+1Aj7X1deHnggdlq3vclKOoB/X7+hhWHG242EU5ivGgLsSs4ukSF+UoxoNqjFHFU5Ov3ZOjGA/qSEwqro5276w7eFA2y37dtfNue8ODstrOjt2JmfGg7sOU4uwBt+QoeFC2c0uOggdlvytdkqPgQdlvLYfkKMaDOg4TirsT3DE4qAf1Jjyo+N94v+2KwgMPKpn2cESOYjyohzEdGz3qhhzFeFAbYzg2ckOOylsIDyqpriNLv9C+HAUPKrma/5C8HMV4UCdhMrY6JfkjsJPhQSUYI0dNtvsT9KAfRfbCXOy1L13/HjZfn/GgnsBUbJawHMV4UJthKDbbIlE5ivGgbsBM7HZzknIU40EVYCR2a5mgHAUPyoXOTE6OmggPyoEYOWqinVfuSq9R2x/zsN9B9JrMrlZeeCY8KDd6ngxipo2X7U9e9p8tMYwkYuSo/vG/KuNB3YpZJNMdSchR1IP6BR5UQrVKQI6CB+VS59mXo+BBuVTjL23LUYwHdQjmkFyH25ajqAf1AqaQZC/blaMYD2o7DCHJ7MpRjAd1F2aQbPfalKPgQbmXTTmK8aAuwASSzqIcRT2or+BBJZ49OQoelJsdY0uOoh7UK/CgHCj7DTtyFONB7YjVd6FdrMhRKXhQzvYglaNSxl+E8aDaYOndqL0FOYrxoC7DyruSBTmKelDfwINypvjlKMaDOhbr7k4nxi1HTYEH5XSMHDXF5PMzHtR/sOouFa8clTMHHpTrPUZGNMfc7+iB8KCcryOVowaaem7Gg7oaK+5a18cnR1EP6jt4UM5VEJsc1Y56UIOw3u51Kj1W287IE1MP6h14UA6W+iAeOQoelC/FI0cxHtTjWGs3ezoOOWoAPChvYuSoAZk+Jzwon7rFvBwFD8qnWv5iWo5iPKjTsM7udpZpOQoelF81+NSsHMV4UPthlV3OsBxFPahnsMZuV2lSjoIH5V/bGpSj4EH52J3m5Ch4UD7W6ndTchTjQZ2N9XW/803JUdSD+hQelAc1/sqMHMV4UAdjdX3oCDNyFDwoX8s2IkfBg/K3bgbkKMaDuhMr60uTMpej4EH5XJuM5Sh4UH53aaZyFDwov2vyTWZyVCH1oI7AqvrUsfRMvsIID58KD8rzcqgcNVX+aMaD6oY19atM5CjGg5qEFfWth9KXowaThy6GB+Vd7SnqMlj2SHhQYXRVunIUPKgwyv8uPTmqw1J4UGE0iAxyqUSOoh7UG/CgvKzeO+nIUfCgwmnPNOQoxoN6CCvpa49Hl6MYD6o9FtLXOv4dVY5iPKirsI7+FlmOggcVVgU/RpOj4EGF1mnR5Ch4UKFVP5IcxXhQe2IN/W6/CHIUPKgQe0YuRzEeVEcsoO9tKZajcueT//J6rJ//UTlqPi9HUQ/qB3hQAbSOUI5iPKhTsXohdLZMjqIe1AfwoIKooUiOggcVbgdL5Ch4UAH3Qt1yFDyokNtueV1yVCPqQd2CdQsnRo5qtMZ/MJx6UC2xbOG0PpWjhq/+7xkP6iysWkhdULscBQ8q9GqXo+BBhV+tctR08i8rsWKBlf0KGfL0lf+OelDLtsWKhdaOVTXJUfCgdHRfTXLUUOpBtcJyhVcbesLn0Op/znhQ52O1QuwyXo6CB6WlpqwcxXhQh2OtwoyVo6gH9TI8qEDLeZORo7ADKN8B8CdA+Z8AvAlU/iYQHwO1fwzEgSAl1XQgCIeClVTjoWB8GaSimr8MwtfBGqrt62CcEKKg2m8lhlPCQq+OmwnipNDQq+OkUJwWHnh1nRaOC0MCr84LQ3BpWNDVfWkYLg4NOsHFobg8POBEl4cDiAg2GRABIibYhEQMkKhAkyJRYOICTczEAYoMMjkUCSo2yCJQscCiAywKFg0uPryicfG4YURwRbxhBG4ZE1hRbxmDm0YFVuSbRuG2cUEV/bZxuHFkUKVx40jcOjag0rl1LG4eHU7p3Twat48PpjRvH581hjzum6ZYTf/K/44Mcozogc0WkQdehuX0r6vIGBc1kz1yMHnk4jZYT99qv4SMcbDwoam55KGTsKC+9RAZ4tyU9LG96ceHblhRv9qFzrC3/NFUjnoFcpRX5bzBeFDyGDnqCCyqT/EelDzIUX7XhPeg5DFy1AVYVn+6tAYPSt4QKketj3X1pTaLyfiGRHwKyFE+N6lGD0oelaOWb4eV9aNuy2v2oORNI0/yApbWi7JfJqOblsbTQI7ytdo9KHmQo/ysDg9KHiNHnY3ldb/z6/Cg5A2jctQ6WF/Xa0U9qGFpPlVDKkfdigV2PcaDSvsvN+Qo/9p2Wd0elDzIUd5VKfCg5EGO8q2DRB6UPCpHfQg5yuEayDwoeYwcdRqW2d3OEnpQ8qgc9SPkKGdrKfWg5OXOI095Axba1agHNS830+dk5KjNsNJutoXcg5IHOcqfno7gQclj5Ki9sNYutm8kD0oe5Cg/SkXzoORBjvKjUyN6UPIgR/lQwQ8RPSh5jBx1NRbctaJ7UPIYOWpjrLhbdVwa2YOSx8hRD2PJ3eqxNDwoeZCjXG+PtDwoeVSOehNylEPVezstD0pehyWQo1zuRPourYPZV4Ac5XJrfZumByUPcpTLXZm2ByWvhB5nghzlSO3/IsMpMf4ijBx1H5bejR7MwIOSx8hRO2LtXSgzD0peBeQoJ8umHlRFLC/UicpRR2L5k+8Yes5Wp3heCXKUizX5OkMPSh7kKBe7JGMPSh7kKPfaMHMPSh4jR92FESTbvQY8KHmQo1xrByMelDzIUY5lxoOSx8hRh2AKyXW4IQ9KHpWjPoMclViNvzTkQclj5KhzMIikOs+YByUPcpQ7tfrNmAclD3KUO91h0IOSBznKlbYx6kHJo3LUsxhGEj1v1IOSx8hR+2Ma9jPtQcmDHOVCDT4x7EHJY+So0zEQ251p3IOSBzkq+Vr+bNyDkgc5KvlujsGDklcEOSrhGA+qyOLLM3LUExiKzZ6KxYOSBzkq2eLyoORROepdyFHWSr0fkwclry2Vo07CYGx1Cr1Or63tn4HKUYsgR1mqeXwelDxGjhqN0djpuhg9KHnFkKMSalPqQRUn8GPkzIYclUyPkoWfnYjXw8hRPTGd+Ivbg5JXDjkqgRgPqjyhH4WRo47DgOLuhNg9KHlUjloAOSrmLHhQ8hg5aiRGFG82PCh5JQ4ckdLVRjY8qAhvSCBHWe4B6kEl+h0MI0d1x5Tia2dLHpQ8KkfNghwVW9mvW/Kg5EGOstnR1jwoeVSOmgc5KqYselDyGDnqQowqnmx6UPIgR9nKqgclj5GjJmBYcXSPVQ9KHiNHdcG0zGfbg5JH5agZGJf5XrLsQclj5Kh+mJfpDrPuQcmDHBV/jb6w7kHJgxwVf+cm4EHJo3LUr5CjjLZeEh6UPEaOGoehmez2RDwoef3oO5TOmJq5tnH+ffYMyFFx9pzzn7S70KMUfTA3Ux3owbG2CZCjYovxoNw72g45Kr7OSNCDksfIUWtjdiZqkaQHJY+Ro0oxPBPdlKgHJa/IwfOVQmjzZD0oeYwcVYHxZV7SHpS87vSc5V6YX6bt49GZ92WQo4zHeFBlzv6wjBxVghFm1sleXX0HOcp0zb93wIOSl7cAcpTZrqVX4Oe5/PMWO6QXhJAjHpQ8Ro4qxxjT7xFHPCh5kKNMtrszHpS8cu/2WYd/n77l4e9TRo4qxijT63gv31FBjjL2mcolD0oe5ChTXeGUByUPcpSZHPOg5DFyVBnGGb37HfOg5PWCHGWgnTz+bhVyVOZlv+bx2RWMHFWEkUbrKK/PrxrryVls7tZkvoMelDxGjhqBoUbpYic9KHlDvDiT3d02+MNJD0oe5KjMuttRD0peH8hRGbR9AFdaQo7KoBed9aDkQY5Kv0Md9qDkjXPctHA3xoPy0Vth5KhhGK4ktz0oecMC2Q7bOe5ByYMclV63BfO3E3JUOm0d0LvnGQF8mrHecwF9foYcFb0DgjqCNsH7I5q2a/BxUMfQW/v+nYb1zgjsW7QRnn+rabsWoX2PzshRYzHmmrsxuDNpIEdFqfCf4M6ly54FOUrekwGeTdvdubvdutveQZ5PX+bt9Q22S70X5BU1kKOknRzoNXWjPL3G0XbN/PKg5DVd4OVVzta7Jtjr6iFHSdpkabCyBuQoSf55UPJ29dA6st1uQa8R5Kg6f0vOCfq3JOSouhoY+Puk0WT7FuZh6qvKWxi4scvIUaMw9lVdHvyxEshRtdXur+CPljJy1GQMfmX3K/i+hJGjemDyK+qh4l47Fd7c+8h2XntQ8hg5agCGX90AJWdNlUKOYsudr+SOm5Cj+C5Sc+Y05CiuDfRcO8HIUROxA9yt6OopRo7qqn3+XVVdP0nlqJnad4CZqq6g7kyvfe+ve/79lRkKkKPWrJE2RQVy1JoNV+coQY5S/v8DI0eN17sDjFf4F7FfEAqmmXRqqpCj/td0lZ4yI0f11Tn/vkpFdchRK6oflgclj5GjhmrcAYaq/W4MclR1ir8dhxxVneY7qzFyVKG2+RdqvrciI0dN1bYDTFV9d1XIUb2V31+ZkaNSmrY/pf0O64wcVTlFUZXqr5QbWYXWaKSy90CMHKW6UDwoecUYum4vg5GjFKdRzOmJsa+qZ5bCyjF33WoeI0cpTaubORqjD9GDkpe/CLP/rweVr3QHYOQolenV8xk5SmGa75/RC+MP0oOSV4H5676HFiNHKUv7XfRKte8Apbrnn1UwSHkFWQghhBBCCCGEEEIIIYQQQgghhBBCCCGEEEIIIYQQQgghhBBCCCEk6V8rV49UUboZjAAAAABJRU5ErkJggg==;" vertex="1" parent="1">
          <mxGeometry x="100" y="50" width="715" height="715" as="geometry" />
        </mxCell>
        <mxCell id="KO9Rwdfi3OCxtlssUr2g-3" value="" style="shape=image;verticalLabelPosition=bottom;labelBackgroundColor=default;verticalAlign=top;aspect=fixed;imageAspect=0;image=data:image/png,iVBORw0KGgoAAAANSUhEUgAAAgAAAAIACAMAAADDpiTIAAAAA3NCSVQICAjb4U/gAAAACXBIWXMAAG9tAABvbQGwKa/bAAAAGXRFWHRTb2Z0d2FyZQB3d3cuaW5rc2NhcGUub3Jnm+48GgAAAwBQTFRF////AAAAAAAAAAAAAAAAAAAAAAAAAAAAAAAAAAAAAAAAAAAAAAAAAAAAAAAAAAAAAAAAAAAAAAAAAAAAAAAAAAAAAAAAAAAAAAAAAAAAAAAAAAAAAAAAAAAAAAAAAAAAAAAAAAAAAAAAAAAAAAAAAAAAAAAAAAAAAAAAAAAAAAAAAAAAAAAAAAAAAAAAAAAAAAAAAAAAAAAAAAAAAAAAAAAAAAAAAAAAAAAAAAAAAAAAAAAAAAAAAAAAAAAAAAAAAAAAAAAAAAAAAAAAAAAAAAAAAAAAAAAAAAAAAAAAAAAAAAAAAAAAAAAAAAAAAAAAAAAAAAAAAAAAAAAAAAAAAAAAAAAAAAAAAAAAAAAAAAAAAAAAAAAAAAAAAAAAAAAAAAAAAAAAAAAAAAAAAAAAAAAAAAAAAAAAAAAAAAAAAAAAAAAAAAAAAAAAAAAAAAAAAAAAAAAAAAAAAAAAAAAAAAAAAAAAAAAAAAAAAAAAAAAAAAAAAAAAAAAAAAAAAAAAAAAAAAAAAAAAAAAAAAAAAAAAAAAAAAAAAAAAAAAAAAAAAAAAAAAAAAAAAAAAAAAAAAAAAAAAAAAAAAAAAAAAAAAAAAAAAAAAAAAAAAAAAAAAAAAAAAAAAAAAAAAAAAAAAAAAAAAAAAAAAAAAAAAAAAAAAAAAAAAAAAAAAAAAAAAAAAAAAAAAAAAAAAAAAAAAAAAAAAAAAAAAAAAAAAAAAAAAAAAAAAAAAAAAAAAAAAAAAAAAAAAAAAAAAAAAAAAAAAAAAAAAAAAAAAAAAAAAAAAAAAAAAAAAAAAAAAAAAAAAAAAAAAAAAAAAAAAAAAAAAAAAAAAAAAAAAAAAAAAAAAAAAAAAAAAAAAAAAAAAAAAAAAAAAAAAAAAAAAAAAAAAAAAAAAAAAAAAAAAAAAAAAAAAAAAAAAAAAAAAAAAAAAAAAAAAAAAAAAAAAAAAAAAAAAAAAAAAAAAAAAAAAAAAAAAAAAAAAAAAAAAAAAAAAAAAAAAAAAAAAAAAAAAAAAAACyO34QAAAP90Uk5TAAECAwQFBgcICQoLDA0ODxAREhMUFRYXGBkaGxwdHh8gISIjJCUmJygpKissLS4vMDEyMzQ1Njc4OTo7PD0+P0BBQkNERUZHSElKS0xNTk9QUVJTVFVWV1hZWltcXV5fYGFiY2RlZmdoaWprbG1ub3BxcnN0dXZ3eHl6e3x9fn+AgYKDhIWGh4iJiouMjY6PkJGSk5SVlpeYmZqbnJ2en6ChoqOkpaanqKmqq6ytrq+wsbKztLW2t7i5uru8vb6/wMHCw8TFxsfIycrLzM3Oz9DR0tPU1dbX2Nna29zd3t/g4eLj5OXm5+jp6uvs7e7v8PHy8/T19vf4+fr7/P3+6wjZNQAAExFJREFUeNrt3Xd4FFUXx/EkLC0QAxFURAERRaJiA0VQX6xgAxvYgi2oGGxgAxs2sIEt2MAGKgZbsAUbaAQLNrBg76Cg2AsKCvHJy8MLvOckObN758699/y+f6q7m7lnTHZnZz6TlYUQQgghhBBCCCGEEEIIIYQQQgghhBBCCCGEEEIIIYQQQgghhBBCkgoGKa9A+Q5QWqW8Ut3z7/S39h3g706qd4CKKvVVaJ5/L8y/qqqX3vnXm4vxV1XNrad2ByjB9Ksr0Tr//EUYfnWL8pXuAKMx+xWN1jn/Dksw+hUt6aByByjH5FdWrnH+PTH3VfXUN/+c2Rj7qmbnqNsBijH11SvWNv+mCzD01VvQVNkOMBIzX7ORuubf9k+yApVTFFVJNv/Ptqp2gDJ6RDylaftT9FuQMk3b353+Cuyt61dgb7oC3fVsffYssvVTtb0LnkqWYFa2mo0voufFFGrbAQrpuVBFWrY9dx7Z9rH6joSNJYswL1fJpo8gm/7T2vp2gLV/IsswQseWt/6DbPnQLIUNJcvwR2sVGz6BbPhH9TXuAPU/JgsxQcN2d1lOtrtvlsr6koVY3kXBZs8gmz0tS2nTyVLMCH+j+5GNXraV1h1gq2VkMfqFvs0NPyfbPD5LbePJYnzeMPBNHkY2+dd19e4A6/5KlmMYtlhTw7X9/zBO3++8WmtE/yKOC3l7O9N3Pf2zVNefvifuHPDmTiObOzNLeTM1fSruQ498dNW+A3Slx8X6hLqt9T8i2zoxS3136zkyPkTrtx+1tgH9bmxImFuq9/vP2rtIy7fjpXrPgKi13PlkYYKUoxgPagCmX90AeoZciHIU9aBezcbwq8t+TYMcxXhQPTD7FfVQIEcxHtRkTH5l94cvR5Vovxaq1tr9Fboc1Yx6UKMw91VdTuWoZkFtIPWgFuZh7KvKWxi2HMV4UMWY+uoNDFuOKoeJUkc5c0KWo3alH3N2xczXbLeA14jxoMox8f/vkXB/SxZDRhS0ydJQ3ycxHtQYzJt2Tahy1KjQP+OaOlbyfZjHShgPqgTT5jo5zKOlZbhDgrDUeyHKUfCg5O0doBzFeFAVmHRNPRmeHFWk42wXQxX+E5ocBQ8qWjeGdt4kPKhotQjszOnWas55N9UZYV07AQ8qag2CkqO6KLruzVQHhCRHwYNKo+fCkaP66br23VBbByNHNVSmX5jqtlAUFXhQ6bXeb2E4SvCg0u3cMP7PgQeVbo2+COFvp0YF01SHhqCpTtPo4JrqRf8/P/fRKWEbanvvj6AxHtQEzFWe93IUPKjM8l2OggeVaRf7/T264jtiGarJfJ/PpOmk+J54pjrK53PpKjTfFdNQPstRvVTfF9dUO3krR9VTfmdsU3krR8GDMtNGnspRjAc1EtNMpyv8vKp2TKhXOVsv71sfr6uHB2Wu432UNeBBmSvnLf9sHcaD6olJptvu3slR8KDM5p0cBQ/KbJt6JkflLQhbPLXftfQzlcvGLuNB5WOImdTcKzkKHpT5vJKjqAf1LjyoDEu97883K90V3PnEfvt4891q9qvwoOLoKV/utgUPKp4290SOYjyoUkzPRDf5cYYl9aB+hAdlpBY/+3CONeNBnY7ZmckLOYp6UB/CgzJUg0/cv84KHlScHej+lZbUg3oWczOX83IUPKh428ZxbQEeVNzd7ra3wnhQ62BoJnNbjmI8qHMwM7M5LUeNJz/cZ/CgDMfIUeNd+dngQdnoMHflKHhQVnrJVTmqLzwoK+1Aj7X1deHnggdlq3vclKOoB/X7+hhWHG242EU5ivGgLsSs4ukSF+UoxoNqjFHFU5Ov3ZOjGA/qSEwqro5276w7eFA2y37dtfNue8ODstrOjt2JmfGg7sOU4uwBt+QoeFC2c0uOggdlvytdkqPgQdlvLYfkKMaDOg4TirsT3DE4qAf1Jjyo+N94v+2KwgMPKpn2cESOYjyohzEdGz3qhhzFeFAbYzg2ckOOylsIDyqpriNLv9C+HAUPKrma/5C8HMV4UCdhMrY6JfkjsJPhQSUYI0dNtvsT9KAfRfbCXOy1L13/HjZfn/GgnsBUbJawHMV4UJthKDbbIlE5ivGgbsBM7HZzknIU40EVYCR2a5mgHAUPyoXOTE6OmggPyoEYOWqinVfuSq9R2x/zsN9B9JrMrlZeeCY8KDd6ngxipo2X7U9e9p8tMYwkYuSo/vG/KuNB3YpZJNMdSchR1IP6BR5UQrVKQI6CB+VS59mXo+BBuVTjL23LUYwHdQjmkFyH25ajqAf1AqaQZC/blaMYD2o7DCHJ7MpRjAd1F2aQbPfalKPgQbmXTTmK8aAuwASSzqIcRT2or+BBJZ49OQoelJsdY0uOoh7UK/CgHCj7DTtyFONB7YjVd6FdrMhRKXhQzvYglaNSxl+E8aDaYOndqL0FOYrxoC7DyruSBTmKelDfwINypvjlKMaDOhbr7k4nxi1HTYEH5XSMHDXF5PMzHtR/sOouFa8clTMHHpTrPUZGNMfc7+iB8KCcryOVowaaem7Gg7oaK+5a18cnR1EP6jt4UM5VEJsc1Y56UIOw3u51Kj1W287IE1MP6h14UA6W+iAeOQoelC/FI0cxHtTjWGs3ezoOOWoAPChvYuSoAZk+Jzwon7rFvBwFD8qnWv5iWo5iPKjTsM7udpZpOQoelF81+NSsHMV4UPthlV3OsBxFPahnsMZuV2lSjoIH5V/bGpSj4EH52J3m5Ch4UD7W6ndTchTjQZ2N9XW/803JUdSD+hQelAc1/sqMHMV4UAdjdX3oCDNyFDwoX8s2IkfBg/K3bgbkKMaDuhMr60uTMpej4EH5XJuM5Sh4UH53aaZyFDwov2vyTWZyVCH1oI7AqvrUsfRMvsIID58KD8rzcqgcNVX+aMaD6oY19atM5CjGg5qEFfWth9KXowaThy6GB+Vd7SnqMlj2SHhQYXRVunIUPKgwyv8uPTmqw1J4UGE0iAxyqUSOoh7UG/CgvKzeO+nIUfCgwmnPNOQoxoN6CCvpa49Hl6MYD6o9FtLXOv4dVY5iPKirsI7+FlmOggcVVgU/RpOj4EGF1mnR5Ch4UKFVP5IcxXhQe2IN/W6/CHIUPKgQe0YuRzEeVEcsoO9tKZajcueT//J6rJ//UTlqPi9HUQ/qB3hQAbSOUI5iPKhTsXohdLZMjqIe1AfwoIKooUiOggcVbgdL5Ch4UAH3Qt1yFDyokNtueV1yVCPqQd2CdQsnRo5qtMZ/MJx6UC2xbOG0PpWjhq/+7xkP6iysWkhdULscBQ8q9GqXo+BBhV+tctR08i8rsWKBlf0KGfL0lf+OelDLtsWKhdaOVTXJUfCgdHRfTXLUUOpBtcJyhVcbesLn0Op/znhQ52O1QuwyXo6CB6WlpqwcxXhQh2OtwoyVo6gH9TI8qEDLeZORo7ADKN8B8CdA+Z8AvAlU/iYQHwO1fwzEgSAl1XQgCIeClVTjoWB8GaSimr8MwtfBGqrt62CcEKKg2m8lhlPCQq+OmwnipNDQq+OkUJwWHnh1nRaOC0MCr84LQ3BpWNDVfWkYLg4NOsHFobg8POBEl4cDiAg2GRABIibYhEQMkKhAkyJRYOICTczEAYoMMjkUCSo2yCJQscCiAywKFg0uPryicfG4YURwRbxhBG4ZE1hRbxmDm0YFVuSbRuG2cUEV/bZxuHFkUKVx40jcOjag0rl1LG4eHU7p3Twat48PpjRvH581hjzum6ZYTf/K/44Mcozogc0WkQdehuX0r6vIGBc1kz1yMHnk4jZYT99qv4SMcbDwoam55KGTsKC+9RAZ4tyU9LG96ceHblhRv9qFzrC3/NFUjnoFcpRX5bzBeFDyGDnqCCyqT/EelDzIUX7XhPeg5DFy1AVYVn+6tAYPSt4QKketj3X1pTaLyfiGRHwKyFE+N6lGD0oelaOWb4eV9aNuy2v2oORNI0/yApbWi7JfJqOblsbTQI7ytdo9KHmQo/ysDg9KHiNHnY3ldb/z6/Cg5A2jctQ6WF/Xa0U9qGFpPlVDKkfdigV2PcaDSvsvN+Qo/9p2Wd0elDzIUd5VKfCg5EGO8q2DRB6UPCpHfQg5yuEayDwoeYwcdRqW2d3OEnpQ8qgc9SPkKGdrKfWg5OXOI095Axba1agHNS830+dk5KjNsNJutoXcg5IHOcqfno7gQclj5Ki9sNYutm8kD0oe5Cg/SkXzoORBjvKjUyN6UPIgR/lQwQ8RPSh5jBx1NRbctaJ7UPIYOWpjrLhbdVwa2YOSx8hRD2PJ3eqxNDwoeZCjXG+PtDwoeVSOehNylEPVezstD0pehyWQo1zuRPourYPZV4Ac5XJrfZumByUPcpTLXZm2ByWvhB5nghzlSO3/IsMpMf4ijBx1H5bejR7MwIOSx8hRO2LtXSgzD0peBeQoJ8umHlRFLC/UicpRR2L5k+8Yes5Wp3heCXKUizX5OkMPSh7kKBe7JGMPSh7kKPfaMHMPSh4jR92FESTbvQY8KHmQo1xrByMelDzIUY5lxoOSx8hRh2AKyXW4IQ9KHpWjPoMclViNvzTkQclj5KhzMIikOs+YByUPcpQ7tfrNmAclD3KUO91h0IOSBznKlbYx6kHJo3LUsxhGEj1v1IOSx8hR+2Ma9jPtQcmDHOVCDT4x7EHJY+So0zEQ251p3IOSBzkq+Vr+bNyDkgc5KvlujsGDklcEOSrhGA+qyOLLM3LUExiKzZ6KxYOSBzkq2eLyoORROepdyFHWSr0fkwclry2Vo07CYGx1Cr1Or63tn4HKUYsgR1mqeXwelDxGjhqN0djpuhg9KHnFkKMSalPqQRUn8GPkzIYclUyPkoWfnYjXw8hRPTGd+Ivbg5JXDjkqgRgPqjyhH4WRo47DgOLuhNg9KHlUjloAOSrmLHhQ8hg5aiRGFG82PCh5JQ4ckdLVRjY8qAhvSCBHWe4B6kEl+h0MI0d1x5Tia2dLHpQ8KkfNghwVW9mvW/Kg5EGOstnR1jwoeVSOmgc5KqYselDyGDnqQowqnmx6UPIgR9nKqgclj5GjJmBYcXSPVQ9KHiNHdcG0zGfbg5JH5agZGJf5XrLsQclj5Kh+mJfpDrPuQcmDHBV/jb6w7kHJgxwVf+cm4EHJo3LUr5CjjLZeEh6UPEaOGoehmez2RDwoef3oO5TOmJq5tnH+ffYMyFFx9pzzn7S70KMUfTA3Ux3owbG2CZCjYovxoNw72g45Kr7OSNCDksfIUWtjdiZqkaQHJY+Ro0oxPBPdlKgHJa/IwfOVQmjzZD0oeYwcVYHxZV7SHpS87vSc5V6YX6bt49GZ92WQo4zHeFBlzv6wjBxVghFm1sleXX0HOcp0zb93wIOSl7cAcpTZrqVX4Oe5/PMWO6QXhJAjHpQ8Ro4qxxjT7xFHPCh5kKNMtrszHpS8cu/2WYd/n77l4e9TRo4qxijT63gv31FBjjL2mcolD0oe5ChTXeGUByUPcpSZHPOg5DFyVBnGGb37HfOg5PWCHGWgnTz+bhVyVOZlv+bx2RWMHFWEkUbrKK/PrxrryVls7tZkvoMelDxGjhqBoUbpYic9KHlDvDiT3d02+MNJD0oe5KjMuttRD0peH8hRGbR9AFdaQo7KoBed9aDkQY5Kv0Md9qDkjXPctHA3xoPy0Vth5KhhGK4ktz0oecMC2Q7bOe5ByYMclV63BfO3E3JUOm0d0LvnGQF8mrHecwF9foYcFb0DgjqCNsH7I5q2a/BxUMfQW/v+nYb1zgjsW7QRnn+rabsWoX2PzshRYzHmmrsxuDNpIEdFqfCf4M6ly54FOUrekwGeTdvdubvdutveQZ5PX+bt9Q22S70X5BU1kKOknRzoNXWjPL3G0XbN/PKg5DVd4OVVzta7Jtjr6iFHSdpkabCyBuQoSf55UPJ29dA6st1uQa8R5Kg6f0vOCfq3JOSouhoY+Puk0WT7FuZh6qvKWxi4scvIUaMw9lVdHvyxEshRtdXur+CPljJy1GQMfmX3K/i+hJGjemDyK+qh4l47Fd7c+8h2XntQ8hg5agCGX90AJWdNlUKOYsudr+SOm5Cj+C5Sc+Y05CiuDfRcO8HIUROxA9yt6OopRo7qqn3+XVVdP0nlqJnad4CZqq6g7kyvfe+ve/79lRkKkKPWrJE2RQVy1JoNV+coQY5S/v8DI0eN17sDjFf4F7FfEAqmmXRqqpCj/td0lZ4yI0f11Tn/vkpFdchRK6oflgclj5GjhmrcAYaq/W4MclR1ir8dhxxVneY7qzFyVKG2+RdqvrciI0dN1bYDTFV9d1XIUb2V31+ZkaNSmrY/pf0O64wcVTlFUZXqr5QbWYXWaKSy90CMHKW6UDwoecUYum4vg5GjFKdRzOmJsa+qZ5bCyjF33WoeI0cpTaubORqjD9GDkpe/CLP/rweVr3QHYOQolenV8xk5SmGa75/RC+MP0oOSV4H5676HFiNHKUv7XfRKte8Apbrnn1UwSHkFWQghhBBCCCGEEEIIIYQQQgghhBBCCCGEEEIIIYQQQgghhBBCCCEk6V8rV49UUboZjAAAAABJRU5ErkJggg==;" vertex="1" parent="1">
          <mxGeometry x="272.5" y="250" width="370" height="370" as="geometry" />
        </mxCell>
        <mxCell id="KO9Rwdfi3OCxtlssUr2g-4" value="Core" style="rounded=0;whiteSpace=wrap;html=1;verticalAlign=top;fillColor=#d5e8d4;strokeColor=#82b366;" vertex="1" parent="1">
          <mxGeometry x="385" y="295" width="145" height="280" as="geometry" />
        </mxCell>
        <mxCell id="KO9Rwdfi3OCxtlssUr2g-6" value="FindAddressByZipCodeOutputPort&lt;br&gt;&lt;div&gt;(Interface)&lt;/div&gt;" style="rounded=0;whiteSpace=wrap;html=1;" vertex="1" parent="1">
          <mxGeometry x="570" y="295" width="200" height="50" as="geometry" />
        </mxCell>
        <mxCell id="KO9Rwdfi3OCxtlssUr2g-9" style="edgeStyle=orthogonalEdgeStyle;rounded=0;orthogonalLoop=1;jettySize=auto;html=1;entryX=1;entryY=0.5;entryDx=0;entryDy=0;strokeWidth=2;strokeColor=#0000FF;" edge="1" parent="1" source="KO9Rwdfi3OCxtlssUr2g-10" target="KO9Rwdfi3OCxtlssUr2g-6">
          <mxGeometry relative="1" as="geometry" />
        </mxCell>
        <mxCell id="KO9Rwdfi3OCxtlssUr2g-10" value="FindAddressByZipCodeAdapter" style="rounded=0;whiteSpace=wrap;html=1;" vertex="1" parent="1">
          <mxGeometry x="830" y="300" width="200" height="40" as="geometry" />
        </mxCell>
        <mxCell id="KO9Rwdfi3OCxtlssUr2g-11" value="IN" style="text;html=1;align=center;verticalAlign=middle;whiteSpace=wrap;rounded=0;fontSize=50;fontColor=#009900;" vertex="1" parent="1">
          <mxGeometry x="395" y="50" width="60" height="30" as="geometry" />
        </mxCell>
        <mxCell id="KO9Rwdfi3OCxtlssUr2g-12" value="OUT" style="text;html=1;align=center;verticalAlign=middle;whiteSpace=wrap;rounded=0;fontSize=50;fontColor=#0000FF;" vertex="1" parent="1">
          <mxGeometry x="480" y="50" width="60" height="30" as="geometry" />
        </mxCell>
        <mxCell id="KO9Rwdfi3OCxtlssUr2g-13" style="edgeStyle=orthogonalEdgeStyle;rounded=0;orthogonalLoop=1;jettySize=auto;html=1;strokeColor=#0000FF;strokeWidth=2;" edge="1" parent="1" source="KO9Rwdfi3OCxtlssUr2g-14" target="KO9Rwdfi3OCxtlssUr2g-15">
          <mxGeometry relative="1" as="geometry" />
        </mxCell>
        <mxCell id="KO9Rwdfi3OCxtlssUr2g-14" value="CustomerAdapter (JPA)" style="rounded=0;whiteSpace=wrap;html=1;" vertex="1" parent="1">
          <mxGeometry x="880" y="455" width="150" height="30" as="geometry" />
        </mxCell>
        <mxCell id="KO9Rwdfi3OCxtlssUr2g-15" value="CustomerOutputPort&lt;div&gt;(Interface)&lt;/div&gt;" style="rounded=0;whiteSpace=wrap;html=1;" vertex="1" parent="1">
          <mxGeometry x="570" y="445" width="140" height="50" as="geometry" />
        </mxCell>
        <mxCell id="KO9Rwdfi3OCxtlssUr2g-18" style="edgeStyle=orthogonalEdgeStyle;rounded=0;orthogonalLoop=1;jettySize=auto;html=1;strokeWidth=2;strokeColor=#009900;" edge="1" parent="1" source="KO9Rwdfi3OCxtlssUr2g-19" target="KO9Rwdfi3OCxtlssUr2g-20">
          <mxGeometry relative="1" as="geometry" />
        </mxCell>
        <mxCell id="KO9Rwdfi3OCxtlssUr2g-19" value="CustomerController (Spring Boot)" style="rounded=0;whiteSpace=wrap;html=1;" vertex="1" parent="1">
          <mxGeometry x="-30" y="445" width="120" height="50" as="geometry" />
        </mxCell>
        <mxCell id="KO9Rwdfi3OCxtlssUr2g-20" value="CustomerInputPort&lt;div&gt;(Interface)&lt;/div&gt;" style="rounded=0;whiteSpace=wrap;html=1;" vertex="1" parent="1">
          <mxGeometry x="210" y="445" width="130" height="50" as="geometry" />
        </mxCell>
        <mxCell id="KO9Rwdfi3OCxtlssUr2g-22" style="edgeStyle=orthogonalEdgeStyle;rounded=0;orthogonalLoop=1;jettySize=auto;html=1;" edge="1" parent="1" source="KO9Rwdfi3OCxtlssUr2g-24" target="KO9Rwdfi3OCxtlssUr2g-27">
          <mxGeometry relative="1" as="geometry" />
        </mxCell>
        <mxCell id="KO9Rwdfi3OCxtlssUr2g-24" value="Domains:&lt;div&gt;&lt;b&gt;Customer&lt;/b&gt;&lt;/div&gt;&lt;div&gt;&lt;b&gt;Address&lt;/b&gt;&lt;/div&gt;" style="rounded=0;whiteSpace=wrap;html=1;" vertex="1" parent="1">
          <mxGeometry x="397.5" y="350" width="120" height="60" as="geometry" />
        </mxCell>
        <mxCell id="KO9Rwdfi3OCxtlssUr2g-25" style="edgeStyle=orthogonalEdgeStyle;rounded=0;orthogonalLoop=1;jettySize=auto;html=1;" edge="1" parent="1" source="KO9Rwdfi3OCxtlssUr2g-27" target="KO9Rwdfi3OCxtlssUr2g-20">
          <mxGeometry relative="1" as="geometry" />
        </mxCell>
        <mxCell id="KO9Rwdfi3OCxtlssUr2g-26" style="edgeStyle=orthogonalEdgeStyle;rounded=0;orthogonalLoop=1;jettySize=auto;html=1;" edge="1" parent="1" source="KO9Rwdfi3OCxtlssUr2g-27" target="KO9Rwdfi3OCxtlssUr2g-15">
          <mxGeometry relative="1" as="geometry" />
        </mxCell>
        <mxCell id="KO9Rwdfi3OCxtlssUr2g-32" style="edgeStyle=orthogonalEdgeStyle;rounded=0;orthogonalLoop=1;jettySize=auto;html=1;entryX=0;entryY=0.5;entryDx=0;entryDy=0;" edge="1" parent="1" source="KO9Rwdfi3OCxtlssUr2g-27" target="KO9Rwdfi3OCxtlssUr2g-6">
          <mxGeometry relative="1" as="geometry">
            <Array as="points">
              <mxPoint x="539" y="450" />
              <mxPoint x="539" y="320" />
            </Array>
          </mxGeometry>
        </mxCell>
        <mxCell id="KO9Rwdfi3OCxtlssUr2g-27" value="&lt;b&gt;CustomerUseCase&lt;/b&gt;" style="rounded=0;whiteSpace=wrap;html=1;" vertex="1" parent="1">
          <mxGeometry x="397.5" y="440" width="120" height="60" as="geometry" />
        </mxCell>
        <mxCell id="KO9Rwdfi3OCxtlssUr2g-31" value="Application" style="text;html=1;align=center;verticalAlign=middle;resizable=0;points=[];autosize=1;strokeColor=none;fillColor=none;fontSize=46;fontStyle=1" vertex="1" parent="1">
          <mxGeometry x="332.5" y="200" width="250" height="70" as="geometry" />
        </mxCell>
      </root>
    </mxGraphModel>
  </diagram>
</mxfile>
